Coordinates
version=1
nRows=14
nColumns=24
inDegrees=yes

Units are S.I. units (second, meters, Newtons, ...)
Angles are in degrees.

endheader
time	pelvis_tilt	pelvis_list	pelvis_rotation	pelvis_tx	pelvis_ty	pelvis_tz	hip_flexion_r	hip_adduction_r	hip_rotation_r	knee_angle_r	ankle_angle_r	subtalar_angle_r	mtp_angle_r	hip_flexion_l	hip_adduction_l	hip_rotation_l	knee_angle_l	ankle_angle_l	subtalar_angle_l	mtp_angle_l	lumbar_extension	lumbar_bending	lumbar_rotation
      5.94500000	     36.10367030	      7.12780174	      5.68284885	      0.88233771	      0.65579645	     -0.28809961	    -14.51887880	     -2.78042152	    -14.85801090	     -7.63042977	      8.19820253	      1.86769356	      0.00000000	    -49.98837937	      0.80960087	     -0.26882775	    -21.58739050	     21.10154641	     14.53682100	      0.00000000	    -62.70118567	     -0.34263662	     -9.58436904
      5.95000000	     36.22058290	      6.85977522	      5.64684415	      0.88810040	      0.65570615	     -0.28782382	    -14.44652441	     -2.49282615	    -14.15925836	     -8.80555424	      7.79768644	      1.34641610	      0.00000000	    -49.86994653	      0.50090598	     -0.34866132	    -23.04734199	     20.37000547	     14.58026902	      0.00000000	    -62.78741853	     -0.07853817	     -9.35460348
      5.95500000	     36.31610841	      6.56818506	      5.58299887	      0.89388447	      0.65565052	     -0.28751399	    -14.33727523	     -2.18826674	    -13.46292846	    -10.05851615	      7.46376693	      0.85157697	      0.00000000	    -49.65591210	      0.19992796	     -0.51712895	    -24.62583701	     19.50799964	     14.60149476	      0.00000000	    -62.85009450	      0.17387196	     -9.09830096
      5.96000000	     36.38733898	      6.27118889	      5.51119007	      0.89970223	      0.65563368	     -0.28717363	    -14.20328733	     -1.87745065	    -12.78154955	    -11.36059285	      7.21650667	      0.40305709	      0.00000000	    -49.35017528	     -0.09954082	     -0.77350842	    -26.29858703	     18.50204976	     14.58737623	      0.00000000	    -62.87921246	      0.40865799	     -8.84184888
      5.96500000	     36.44357674	      5.96249760	      5.42035543	      0.90554994	      0.65565168	     -0.28683255	    -14.07261920	     -1.55712847	    -12.16361590	    -12.65647962	      7.07435052	      0.00033026	      0.00000000	    -48.95842872	     -0.38891232	     -1.09205062	    -28.07365833	     17.34089318	     14.51912903	      0.00000000	    -62.88155665	      0.64760182	     -8.59511490
      5.97000000	     36.49197306	      5.65677714	      5.33675821	      0.91141031	      0.65571699	     -0.28646157	    -13.96860293	     -1.22917539	    -11.61398594	    -13.91530304	      7.02862692	     -0.33356170	      0.00000000	    -48.48472877	     -0.69021115	     -1.46873573	    -29.94236235	     16.01386539	     14.38048684	      0.00000000	    -62.87623460	      0.88258936	     -8.36492922
      5.97500000	     36.54598745	      5.35675025	      5.27974809	      0.91729913	      0.65584565	     -0.28608660	    -13.92513724	     -0.89153537	    -11.15812320	    -15.10292967	      7.08610767	     -0.59335716	      0.00000000	    -47.95210572	     -1.02007928	     -1.88732097	    -31.87733780	     14.50862945	     14.16564783	      0.00000000	    -62.86792157	      1.12724663	     -8.16049433
      5.98000000	     36.48542946	      5.06602787	      5.13489866	      0.92318669	      0.65593821	     -0.28559181	    -13.76367721	     -0.59164581	    -10.66488334	    -16.26202714	      7.28592527	     -0.82158406	      0.00000000	    -47.22270070	     -1.28218649	     -2.42629174	    -33.89712203	     12.82758638	     13.92947992	      0.00000000	    -62.74977261	      1.27586929	     -7.94073811
      5.98500000	     36.65229488	      4.76393846	      5.22640295	      0.92924672	      0.65628671	     -0.28524673	    -14.06266134	     -0.16889198	    -10.51964040	    -17.11093499	      7.52270003	     -0.94014285	      0.00000000	    -46.71554584	     -1.78630721	     -2.89261985	    -35.88334606	     10.94729801	     13.57621529	      0.00000000	    -62.79980984	      1.62909295	     -7.80046709
      5.99000000	     36.53493516	      4.51284216	      5.05668262	      0.93500395	      0.65641529	     -0.28474470	    -13.89756126	      0.08124179	    -10.08769047	    -18.16271802	      7.96057126	     -1.14004849	      0.00000000	    -45.77511390	     -1.98505299	     -3.43761539	    -38.01384648	      8.93238271	     12.82320071	      0.00000000	    -62.65806001	      1.73472186	     -7.62497353
      5.99500000	     36.64570920	      4.18079892	      5.11065054	      0.94097254	      0.65679440	     -0.28439863	    -14.20319662	      0.52335960	     -9.97254917	    -18.85659877	      8.34437018	     -1.24897283	      0.00000000	    -45.08108039	     -2.47862720	     -3.98918083	    -40.06795059	      6.80174001	     12.01425774	      0.00000000	    -62.67362554	      2.09152842	     -7.45128797
      6.00000000	     36.70114749	      3.89706343	      5.11620048	      0.94687416	      0.65718100	     -0.28397372	    -14.47651211	      0.89973589	     -9.85072906	    -19.49165784	      8.85630978	     -1.30625595	      0.00000000	    -44.27104877	     -2.90101575	     -4.55153057	    -42.12314105	      4.51895833	     11.00114993	      0.00000000	    -62.65273303	      2.35671052	     -7.29901869
      6.00500000	     36.67805446	      3.64688910	      5.10416725	      0.95269171	      0.65755791	     -0.28349337	    -14.69102512	      1.23550460	     -9.68045040	    -20.07009463	      9.47243668	     -1.26943540	      0.00000000	    -43.30870745	     -3.27599674	     -5.07326704	    -44.19239831	      2.16708325	      9.78209035	      0.00000000	    -62.57183668	      2.55566956	     -7.15363030
      6.01000000	     36.65673582	      3.38413801	      5.10637495	      0.95852321	      0.65798969	     -0.28303006	    -14.97950973	      1.58983485	     -9.61108355	    -20.51396379	     10.09927244	     -1.22206436	      0.00000000	    -42.32803952	     -3.68812140	     -5.63944632	    -46.20384670	     -0.19655213	      8.42059926	      0.00000000	    -62.48673355	      2.77853553	     -6.99454413
